# AST/ASF file generated using VICON BodyLanguage
# -----------------------------------------------
:version 1.10
:name VICON
:units
  mass 1.0
  length 0.45
  angle deg
:documentation
   .ast/.asf automatically generated from VICON data using
   VICON BodyBuilder and BodyLanguage model FoxedUp or BRILLIANT.MOD
:root
   order TX TY TZ RX RY RZ
   axis XYZ
   position 0 0 0  
   orientation 0 0 0 
:bonedata
  begin
     id 1 
     name lhipjoint
     direction 0.690799 -0.707083 0.151096 
     length 2.54797 
     axis 0 0 0  XYZ
  end
  begin
     id 2 
     name lfemur
     direction 0.34202 -0.939693 0  
     length 7.21646  
     axis 0 0 20  XYZ
    dof rx ry rz
    limits (-160.0 20.0)
           (-70.0 70.0)
           (-60.0 70.0)
  end
  begin
     id 3 
     name ltibia
     direction 0.34202 -0.939693 0   
     length 8.16759   
     axis 0 0 20   XYZ
    dof rx
    limits (-10.0 170.0)
  end
  begin
     id 4 
     name lfoot
     direction 0.0487203 -0.133858 0.989802   
     length 1.93375   
     axis -90 7.62852e-016 20   XYZ
    dof rx rz
    limits (-45.0 90.0)
           (-70.0 20.0)
  end
  begin
     id 5 
     name ltoes
     direction 1.53453e-011 -4.21783e-011 1   
     length 0.979747   
     axis -90 7.62852e-016 20   XYZ
    dof rx
    limits (-90.0 20.0)
  end
  begin
     id 6 
     name rhipjoint
     direction -0.694693 -0.703425 0.150315   
     length 2.56122  
     axis 0 0 0  XYZ 
  end
  begin
     id 7 
     name rfemur
     direction -0.34202 -0.939693 0   
     length 7.36786   
     axis 0 0 -20   XYZ
    dof rx ry rz
    limits (-160.0 20.0)
           (-70.0 70.0)
           (-70.0 60.0)
  end
  begin
     id 8 
     name rtibia
     direction -0.34202 -0.939693 0   
     length 8.07288   
     axis 0 0 -20   XYZ
    dof rx
    limits (-10.0 170.0)
 end
 begin
     id 9 
     name rfoot
     direction -0.0428397 -0.117701 0.992125   
     length 1.88295  
     axis -90 -7.62852e-016 -20   XYZ
    dof rx rz
    limits (-45.0 90.0)
           (-20.0 70.0)
  end
  begin
     id 10 
     name rtoes
     direction -1.53456e-011 -4.2187e-011 1   
     length 0.955578   
     axis -90 -7.62852e-016 -20   XYZ
    dof rx
    limits (-90.0 20.0)
  end
  begin
     id 11 
     name lowerback
     direction 0.0288145 0.999398 -0.0193241   
     length 1.92149   
     axis 0 0 0   XYZ
    dof rx ry rz
    limits (-20.0 45.0)
           (-30.0 30.0)
           (-30.0 30.0)
  end
  begin
     id 12 
     name upperback
     direction 0.0233784 0.998099 0.0570278   
     length 1.90435   
     axis 0 0 0   XYZ
    dof rx ry rz
    limits (-20.0 45.0)
           (-30.0 30.0)
           (-30.0 30.0)
  end
  begin
     id 13 
     name thorax
     direction 0.0096694 0.997833 0.0650817   
     length 1.9111   
     axis 0 0 0   XYZ
    dof rx ry rz
    limits (-20.0 45.0)
           (-30.0 30.0)
           (-30.0 30.0)
  end
  begin
     id 14 
     name lowerneck
     direction 0.00516803 0.999916 0.0118722   
     length 1.74664   
     axis 0 0 0   XYZ
    dof rx ry rz
    limits (-20.0 45.0)
           (-30.0 30.0)
           (-30.0 30.0)
  end
  begin
     id 15 
     name upperneck
     direction -0.0510851 0.996117 -0.071696   
     length 1.68498   
     axis 0 0 0   XYZ
    dof rx ry rz
    limits (-20.0 45.0)
           (-30.0 30.0)
           (-30.0 30.0)
  end
  begin
     id 16
     name head
     direction -0.019188 0.999436 -0.0275702  
     length 1.83483  
     axis 0 0 0   XYZ
    dof rx ry rz
    limits (-20.0 45.0)
           (-30.0 30.0)
           (-30.0 30.0)
  end
  begin
     id 17 
     name lclavicle
     direction 0.967006 0.248456 -0.0562957  
     length 3.39395  
     axis 0 0 0   XYZ
    dof ry rz
    limits (-20.0 10.0)
           (0.0 20.0)
  end
  begin
     id 18 
     name lhumerus
     direction 1 -4.48962e-011 -5.62711e-019   
     length 5.24318   
     axis 180 -30 -90   XYZ
    dof rx ry rz
    limits (-60.0 90.0)
           (-90.0 90.0)
           (-90.0 90.0)
  end
  begin
     id 19
     name lradius
     direction 1 -4.48966e-011 7.90625e-027   
     length 2.98999   
     axis 180 -30 -90   XYZ
    dof rx
    limits (-10.0 170.0)
  end
  begin
     id 20
     name lwrist
     direction 1 -4.48959e-011 1.61068e-026   
     length 1.49499   
     axis -9.31229e-015 90 90   XYZ
    dof ry
    limits (-180.0 0.0)
 end
  begin
     id 21 
     name lhand
     direction 1 -4.49017e-011 3.22136e-026   
     length 0.726745   
     axis -2.0555e-014 90 90   XYZ
    dof rx rz
    limits (-90.0 90.0)
           (-45.0 45.0)
  end
  begin
     id 22 
     name lfingers
     direction 1 -4.4898e-011 6.44272e-026   
     length 0.58592   
     axis -4.11101e-014 90 90   XYZ
    dof rx
    limits (0.0 90.0)
  end
  begin
     id 23
     name lthumb
     direction 0.707107 -6.34922e-011 0.707107   
     length 0.841268   
     axis -90 45 2.85299e-015   XYZ
    dof rx rz
    limits (-45.0 45.0)
           (-45.0 45.0)
  end
  begin
     id 24 
     name rclavicle
     direction -0.972232 0.230238 0.0419005   
     length 3.40416  
     axis 0 0 0   XYZ 
    dof ry rz
    limits (-10.0 20.0)
           (-20.0 0.0)
  end
  begin
     id 25 
     name rhumerus
     direction -1 -4.48976e-011 2.48487e-027  
     length 5.37045   
     axis 180 30 90   XYZ
    dof rx ry rz
    limits (-90.0 60.0)
           (-90.0 90.0)
           (-90.0 90.0)
  end
  begin
     id 26 
     name rradius
     direction -1 -4.48942e-011 7.87951e-027   
     length 2.92792   
     axis 180 30 90   XYZ
    dof rx
    limits (-10.0 170.0)
  end
  begin
     id 27 
     name rwrist
     direction -1 -4.48969e-011 1.61068e-026   
     length 1.46396   
     axis -9.31229e-015 -90 -90   XYZ
    dof ry
    limits (-180.0 0.0)
  end
  begin
     id 28
     name rhand
     direction -1 -4.49043e-011 3.22136e-026   
     length 0.784497   
     axis -2.0555e-014 -90 -90   XYZ
    dof rx rz
    limits (-90.0 90.0)
           (-45.0 45.0)
  end
  begin
     id 29
     name rfingers
     direction -1 -4.48823e-011 6.44272e-026   
     length 0.632482   
     axis -4.11101e-014 -90 -90   XYZ
    dof rx
    limits (0.0 90.0)
  end
  begin
     id 30
     name rthumb
     direction -0.707107 -6.34923e-011 0.707107   
     length 0.908121   
     axis -90 -45 -2.85299e-015   XYZ
    dof rx rz
    limits (-45.0 45.0)
           (-45.0 45.0)
  end
:hierarchy
  begin
    root lhipjoint rhipjoint lowerback
    lhipjoint lfemur
    lfemur ltibia
    ltibia lfoot
    lfoot ltoes
    rhipjoint rfemur
    rfemur rtibia
    rtibia rfoot
    rfoot rtoes
    lowerback upperback
    upperback thorax
    thorax lowerneck lclavicle rclavicle
    lowerneck upperneck
    upperneck head
    lclavicle lhumerus
    lhumerus lradius
    lradius lwrist
    lwrist lhand lthumb
    lhand lfingers
    rclavicle rhumerus
    rhumerus rradius
    rradius rwrist
    rwrist rhand rthumb
    rhand rfingers
  end

#!OML:ASF E:\Style6\Style6.ASF
:FULLY-SPECIFIED
:DEGREES
1372
root 0.569851 16.5209 0.658062 24.8628 3.17913 0.410937
lowerback 11.9758 -1.71819 2.93116
upperback -5.5394 -1.46184 2.95005
thorax -12.8504 -0.77626 1.93145
lowerneck 1.0339 -0.941061 2.02445
upperneck -3.12967 -1.395 -5.74387
head -1.21673 -0.642564 -2.13949
rclavicle 3.33958e-014 -7.15625e-015
rhumerus -71.6127 0.388268 -78.0552
rradius 122.784
rwrist -20.1993
rhand 53.5436 0.0735365
rfingers 7.12502
rthumb 72.0782 12.4467
lclavicle 3.33958e-014 -7.15625e-015
lhumerus -76.6963 -17.9277 93.2467
lradius 118.404
lwrist 38.4892
lhand 28.0948 40.7931
lfingers 7.12502
lthumb 51.9862 60.9069
rfemur -56.7382 -24.1584 28.1854
rtibia 56.5316
rfoot -17.3305 10.0393
rtoes -3.10077
lfemur -53.3532 7.01877 -21.9506
ltibia 56.8306
lfoot -21.7555 -1.54768
ltoes -14.0619
1373
root 0.563905 16.5299 0.676979 24.6384 3.17837 0.360889
lowerback 11.9919 -1.72456 2.90002
upperback -5.58306 -1.47019 2.97794
thorax -12.9091 -0.775918 1.98445
lowerneck 0.502777 -0.779701 2.03414
upperneck -2.38667 -1.14995 -5.81718
head -0.880286 -0.536857 -2.16519
rclavicle 1.5704e-014 -1.90833e-014
rhumerus -71.7187 0.634622 -77.9159
rradius 122.795
rwrist -20.3714
rhand 52.9013 0.104063
rfingers 7.12502
rthumb 71.7242 10.8374
lclavicle 1.5704e-014 -1.90833e-014
lhumerus -76.8733 -18.4383 93.433
lradius 118.425
lwrist 38.4485
lhand 27.9712 41.186
lfingers 7.12502
lthumb 51.874 61.3661
rfemur -56.2962 -24.0892 28.0677
rtibia 56.3829
rfoot -17.1564 10.2741
rtoes -0.758343
lfemur -52.9629 7.02916 -21.828
ltibia 56.7178
lfoot -21.8062 -1.4484
ltoes -14.3147
1374
root 0.556465 16.5423 0.699883 24.3341 3.22553 0.40147
lowerback 12.1001 -1.76066 2.81954
upperback -5.62924 -1.52718 2.96843
thorax -13.0261 -0.795822 2.03928
lowerneck 0.0316375 -0.612205 2.25195
upperneck -1.6606 -0.897825 -6.05098
head -0.564226 -0.427317 -2.28195
rclavicle 3.20043e-014 -3.18055e-014
rhumerus -71.8646 0.788205 -77.787
rradius 122.78
rwrist -20.4547
rhand 52.2926 0.373454
rfingers 7.12502
rthumb 71.3749 9.61239
lclavicle 3.20043e-014 -3.18055e-014
lhumerus -77.1229 -18.7781 93.5556
lradius 118.449
lwrist 38.2861
lhand 27.6787 41.3737
lfingers 7.12502
lthumb 51.6084 61.7091
rfemur -55.7303 -24.113 27.84
rtibia 56.2458
rfoot -17.128 10.3666
rtoes 0.275773
lfemur -52.4349 6.96793 -21.7466
ltibia 56.5774
lfoot -21.8621 -1.43688
ltoes -14.3139
1375
root 0.550688 16.5543 0.720657 24.1162 3.30072 0.383244
lowerback 12.115 -1.82326 2.80647
upperback -5.69 -1.60743 3.00131
thorax -13.1039 -0.830396 2.10539
lowerneck -0.356207 -0.419968 2.49784
upperneck -1.01403 -0.615786 -6.31146
head -0.285225 -0.300993 -2.41381
rclavicle 4.96962e-015 -3.26007e-014
rhumerus -71.9557 0.936767 -77.6722
rradius 122.718
rwrist -20.4719
rhand 52.3634 0.549195
rfingers 7.12502
rthumb 71.4162 9.95907
lclavicle 4.96962e-015 -3.26007e-014
lhumerus -77.299 -18.8527 93.6175
lradius 118.486
lwrist 38.1008
lhand 27.4133 41.5133
lfingers 7.12502
lthumb 51.367 61.9875
rfemur -55.273 -24.1744 27.7533
rtibia 56.1068
rfoot -17.2018 10.3267
rtoes 0.0390473
lfemur -52.0189 6.8996 -21.6137
ltibia 56.4367
lfoot -21.8835 -1.42412
ltoes -14.292
1376
root 0.54866 16.5628 0.736798 24.0021 3.31503 0.263249
lowerback 12.0186 -1.86855 2.89966
upperback -5.76196 -1.64775 3.05883
thorax -13.1299 -0.854485 2.12538
lowerneck -0.676174 -0.216014 2.60644
upperneck -0.49482 -0.322025 -6.45087
head -0.0544034 -0.16624 -2.4807
rclavicle 1.09332e-014 -1.66979e-014
rhumerus -71.9804 1.01205 -77.5558
rradius 122.636
rwrist -20.3825
rhand 52.5822 0.989665
rfingers 7.12502
rthumb 71.5426 10.9323
lclavicle 1.09332e-014 -1.66979e-014
lhumerus -77.3575 -18.7466 93.5885
lradius 118.484
lwrist 37.9873
lhand 27.4165 41.612
lfingers 7.12502
lthumb 51.37 62.0845
rfemur -54.9752 -24.1645 27.8153
rtibia 55.9725
rfoot -17.3109 10.1588
rtoes -1.16735
lfemur -51.7592 6.90747 -21.4339
ltibia 56.3081
lfoot -21.8915 -1.4342
ltoes -14.1449
1377
root 0.545916 16.5728 0.752849 23.8438 3.23973 0.213812
lowerback 11.979 -1.86416 2.89865
upperback -5.8173 -1.63979 3.07779
thorax -13.1696 -0.849648 2.1461
lowerneck -1.02258 -0.0342973 2.64602
upperneck 0.00280526 -0.0583694 -6.54574
head 0.173934 -0.0469119 -2.52005
rclavicle 1.37161e-014 -5.24792e-014
rhumerus -72.0104 0.897421 -77.3835
rradius 122.558
rwrist -20.2498
rhand 52.5155 1.25148
rfingers 7.12502
rthumb 71.5043 11.0309
lclavicle 1.37161e-014 -5.24792e-014
lhumerus -77.3591 -18.5726 93.492
lradius 118.456
lwrist 37.9221
lhand 27.4795 41.4888
lfingers 7.12502
lthumb 51.4273 61.9286
rfemur -54.622 -24.0328 27.7162
rtibia 55.8428
rfoot -17.4774 9.81182
rtoes -3.03429
lfemur -51.4401 6.98135 -21.3617
ltibia 56.1657
lfoot -21.9018 -1.50324
ltoes -13.6573
1378
root 0.541872 16.581 0.770568 23.7126 3.02779 0.296449
lowerback 11.8998 -1.80324 2.72233
upperback -5.87665 -1.59429 3.0468
thorax -13.1846 -0.815009 2.19955
lowerneck -1.28859 0.135127 2.71916
upperneck 0.434232 0.187045 -6.72174
head 0.368092 0.064867 -2.59244
rclavicle 3.77691e-015 -5.56597e-015
rhumerus -72.0572 0.666752 -77.2065
rradius 122.437
rwrist -20.0738
rhand 52.8203 1.4958
rfingers 7.12502
rthumb 71.6784 12.0267
lclavicle 3.77691e-015 -5.56597e-015
lhumerus -77.3585 -18.3167 93.3614
lradius 118.49
lwrist 37.8872
lhand 27.55 41.1489
lfingers 7.12502
lthumb 51.4914 61.5518
rfemur -54.3229 -23.7877 27.4134
rtibia 55.7237
rfoot -17.4414 9.72105
rtoes -2.86116
lfemur -51.0985 7.08509 -21.4709
ltibia 55.9944
lfoot -21.9172 -1.3834
ltoes -13.8437
1379
root 0.538922 16.5897 0.790758 23.5237 2.84354 0.339772
lowerback 11.831 -1.7395 2.61576
upperback -5.90097 -1.53118 3.03111
thorax -13.1679 -0.777248 2.22551
lowerneck -1.519 0.329394 2.75057
upperneck 0.770358 0.463069 -6.89349
head 0.52901 0.193253 -2.65499
rclavicle 7.15625e-015 -1.03368e-014
rhumerus -72.088 0.379148 -77.0563
rradius 122.349
rwrist -19.9458
rhand 53.5345 1.86589
rfingers 7.12502
rthumb 72.0733 14.2153
lclavicle 7.15625e-015 -1.03368e-014
lhumerus -77.3453 -17.9948 93.2625
lradius 118.563
lwrist 37.9314
lhand 27.6692 40.9605
lfingers 7.12502
lthumb 51.5998 61.3009
rfemur -53.9162 -23.5976 27.1415
rtibia 55.5823
rfoot -17.4287 9.72904
rtoes -2.36474
lfemur -50.6692 7.15314 -21.5098
ltibia 55.8033
lfoot -21.9382 -1.19098
ltoes -14.2777
1380
root 0.539245 16.6037 0.816898 23.2431 2.67943 0.33228
lowerback 11.8455 -1.72222 2.61397
upperback -5.94088 -1.50679 3.02457
thorax -13.2238 -0.765685 2.21629
lowerneck -1.72767 0.559512 2.76551
upperneck 1.2316 0.794841 -7.02606
head 0.729577 0.347751 -2.70079
rclavicle 1.05356e-014 -6.36111e-015
rhumerus -72.239 0.207818 -76.9884
rradius 122.355
rwrist -19.9175
rhand 53.7111 2.05299
rfingers 7.12502
rthumb 72.168 14.8647
lclavicle 1.05356e-014 -6.36111e-015
lhumerus -77.3304 -17.4633 93.0992
lradius 118.51
lwrist 37.941
lhand 27.818 41.049
lfingers 7.12502
lthumb 51.735 61.3107
rfemur -53.3643 -23.5164 26.9114
rtibia 55.4193
rfoot -17.4226 9.84327
rtoes -1.9326
lfemur -50.0993 7.25934 -21.4972
ltibia 55.6023
lfoot -22.0218 -0.97118
ltoes -15.1528
1381
root 0.540337 16.6211 0.842867 22.9794 2.45901 0.304087
lowerback 11.8685 -1.74161 2.57576
upperback -5.99995 -1.53056 3.07636
thorax -13.3041 -0.770126 2.30471
lowerneck -1.76818 0.858787 2.72794
upperneck 1.5498 1.21691 -7.21587
head 0.861934 0.551072 -2.7536
rclavicle 1.64991e-014 1.43125e-014
rhumerus -72.3826 0.239325 -76.9311
rradius 122.327
rwrist -19.8738
rhand 53.3251 2.3986
rfingers 7.12502
rthumb 71.9595 14.2065
lclavicle 1.64991e-014 1.43125e-014
lhumerus -77.2926 -16.6517 92.863
lradius 118.372
lwrist 37.9225
lhand 27.882 41.0297
lfingers 7.12502
lthumb 51.7931 61.2575
rfemur -52.8482 -23.4112 26.7178
rtibia 55.233
rfoot -17.419 9.86664
rtoes -2.2989
lfemur -49.562 7.46317 -21.4959
ltibia 55.4194
lfoot -22.0873 -0.875935
ltoes -15.4726
1382
root 0.5359 16.6304 0.862998 22.7775 2.32985 0.289919
lowerback 11.8812 -1.75416 2.47311
upperback -6.06214 -1.55141 3.17242
thorax -13.3786 -0.764809 2.47769
lowerneck -1.80789 1.14343 2.62372
upperneck 1.73585 1.61564 -7.42882
head 0.95157 0.743564 -2.80095
rclavicle 3.57812e-015 7.15625e-015
rhumerus -72.4841 0.232133 -76.7741
rradius 122.3
rwrist -19.8383
rhand 52.8709 2.70697
rfingers 7.12502
rthumb 71.707 13.3643
lclavicle 3.57812e-015 7.15625e-015
lhumerus -77.1856 -15.8869 92.672
lradius 118.237
lwrist 37.9455
lhand 27.692 40.85
lfingers 7.12502
lthumb 51.6205 61.1784
rfemur -52.4358 -23.2783 26.5598
rtibia 55.0707
rfoot -17.4234 9.76136
rtoes -2.67206
lfemur -49.1666 7.60207 -21.4677
ltibia 55.2671
lfoot -22.1119 -0.910917
ltoes -15.3555
1383
root 0.528545 16.635 0.882391 22.6046 2.40493 0.202322
lowerback 11.8094 -1.77052 2.54667
upperback -6.13461 -1.55337 3.23769
thorax -13.4201 -0.768337 2.50978
lowerneck -1.87586 1.37561 2.61753
upperneck 2.01544 1.94628 -7.5744
head 1.07328 0.900943 -2.84464
rclavicle -2.56432e-014 -8.74653e-015
rhumerus -72.6937 0.000113694 -76.5713
rradius 122.317
rwrist -19.937
rhand 52.5346 2.66026
rfingers 7.12502
rthumb 71.5153 12.4865
lclavicle -2.56432e-014 -8.74653e-015
lhumerus -77.0858 -15.3392 92.4671
lradius 118.137
lwrist 37.9282
lhand 27.4158 40.5763
lfingers 7.12502
lthumb 51.3694 61.0492
rfemur -52.0417 -23.2075 26.5484
rtibia 54.9195
rfoot -17.4507 9.65799
rtoes -2.29807
lfemur -48.8622 7.59504 -21.2847
ltibia 55.1404
lfoot -22.0996 -0.966203
ltoes -15.2655
1384
root 0.525362 16.6445 0.904048 22.3121 2.27201 0.193451
lowerback 11.8219 -1.68954 2.53105
upperback -6.16966 -1.45017 3.1897
thorax -13.4714 -0.72082 2.4436
lowerneck -1.91543 1.55818 2.78708
upperneck 2.35017 2.21076 -7.75568
head 1.20843 1.0257 -2.93452
rclavicle -4.96962e-015 -3.18055e-014
rhumerus -72.9946 -0.430744 -76.3033
rradius 122.359
rwrist -20.1333
rhand 52.2309 2.44772
rfingers 7.12502
rthumb 71.3387 11.5384
lclavicle -4.96962e-015 -3.18055e-014
lhumerus -76.989 -14.9304 92.1835
lradius 118.074
lwrist 37.9614
lhand 27.1852 40.5667
lfingers 7.12502
lthumb 51.1594 61.1587
rfemur -51.5383 -23.0956 26.3475
rtibia 54.7943
rfoot -17.4806 9.62633
rtoes -2.30933
lfemur -48.3602 7.69196 -21.24
ltibia 55.0133
lfoot -22.1426 -0.908239
ltoes -15.4301
1385
root 0.524937 16.6561 0.924448 21.9431 1.93126 0.22026
lowerback 11.9728 -1.51827 2.45792
upperback -6.20121 -1.2383 3.06053
thorax -13.6059 -0.621116 2.29952
lowerneck -1.92027 1.70875 3.0353
upperneck 2.69017 2.43134 -7.93512
head 1.33964 1.12999 -3.03975
rclavicle 9.74045e-015 -8.74653e-015
rhumerus -73.3799 -1.00924 -75.9341
rradius 122.404
rwrist -20.4117
rhand 51.8443 1.97427
rfingers 7.12502
rthumb 71.1095 10.1493
lclavicle 9.74045e-015 -8.74653e-015
lhumerus -76.9566 -14.6319 91.8003
lradius 118.045
lwrist 38.0234
lhand 27.2462 40.716
lfingers 7.12502
lthumb 51.215 61.2766
rfemur -50.9608 -22.8385 26.0027
rtibia 54.6756
rfoot -17.4795 9.62083
rtoes -2.38417
lfemur -47.7476 7.93535 -21.2967
ltibia 54.8871
lfoot -22.2326 -0.790105
ltoes -15.5751
1386
root 0.522151 16.6614 0.942568 21.6442 1.69724 0.185252
lowerback 12.0213 -1.37251 2.45056
upperback -6.20799 -1.04982 2.9745
thorax -13.6481 -0.536786 2.16563
lowerneck -2.01191 1.86754 3.22019
upperneck 2.97546 2.65943 -8.0603
head 1.46851 1.23741 -3.11387
rclavicle -4.37326e-015 2.06736e-014
rhumerus -73.7304 -1.48728 -75.5366
rradius 122.466
rwrist -20.6927
rhand 51.3391 1.75333
rfingers 7.12502
rthumb 70.8026 8.76572
lclavicle -4.37326e-015 2.06736e-014
lhumerus -76.9084 -14.3921 91.4385
lradius 118.047
lwrist 38.1323
lhand 27.0561 40.5687
lfingers 7.12502
lthumb 51.0418 61.2267
rfemur -50.4695 -22.6077 25.7911
rtibia 54.574
rfoot -17.4836 9.57446
rtoes -2.63065
lfemur -47.2704 8.14307 -21.2626
ltibia 54.7772
lfoot -22.2615 -0.721948
ltoes -15.7953
